#!OML:ASF F:\VICON\USERDATA\INSTALL\rory3\rory3.ASF
:FULLY-SPECIFIED
:DEGREES
263
root 0.172156 17.6165 21.7756 -2.3055 6.56406 1.54047
lowerback 9.13792 -1.89218 -4.49839
upperback 0.783928 -2.90637 1.48855
thorax -4.0039 -1.35423 4.44053
lowerneck -15.6181 -2.83304 -2.12848
upperneck 21.0649 -3.45163 0.21261
head 9.24858 -1.76013 -0.00371069
rclavicle 3.3048e-015 -5.56597e-015
rhumerus -35.0799 -26.0568 -73.5917
rradius 22.5261
rwrist 11.5173
rhand -17.2673 22.4525
rfingers 7.12502
rthumb 8.9774 -7.33652
lclavicle 3.3048e-015 -5.56597e-015
lhumerus -21.1371 -3.35371 81.2474
lradius 31.5136
lwrist 9.89556
lhand -30.9032 18.0708
lfingers 7.12502
lthumb -4.18963 48.0094
rfemur -29.0978 1.69334 19.9631
rtibia 27.0323
rfoot -4.32232 -9.46606
rtoes 0.892689
lfemur 13.4331 -3.8411 -24.6214
ltibia 30.7972
lfoot -10.5463 -9.60417
ltoes -20.5133
264
root 0.163864 17.6206 21.9939 -2.47961 6.21369 1.10554
lowerback 9.16395 -1.8012 -4.03336
upperback 0.664086 -2.73567 1.60191
thorax -4.17817 -1.26936 4.28224
lowerneck -15.6827 -2.75866 -2.17348
upperneck 21.5337 -3.35521 0.278142
head 9.42495 -1.71121 0.0336736
rclavicle 1.47846e-014 1.07344e-014
rhumerus -35.4194 -26.508 -73.1546
rradius 22.2884
rwrist 11.7286
rhand -17.1903 23.111
rfingers 7.12502
rthumb 9.0517 -6.67481
lclavicle 1.47846e-014 1.07344e-014
lhumerus -21.4769 -3.12013 81.4049
lradius 31.1286
lwrist 9.67904
lhand -30.4021 20.8478
lfingers 7.12502
lthumb -3.7058 50.7953
rfemur -28.871 2.22859 20.5042
rtibia 27.8508
rfoot -3.68594 -8.81931
rtoes -1.03866
lfemur 13.2201 -3.52742 -23.9274
ltibia 32.5069
lfoot -8.85795 -10.6518
ltoes -20.2181
265
root 0.15486 17.6326 22.2209 -2.74475 5.67135 0.58386
lowerback 8.93424 -1.69192 -3.58328
upperback 0.718778 -2.52797 1.79596
thorax -4.02415 -1.17835 4.195
lowerneck -15.6105 -2.71302 -2.24969
upperneck 21.6843 -3.26527 0.237198
head 9.46395 -1.6807 0.0435437
rclavicle -4.09993e-014 2.3059e-014
rhumerus -35.4679 -26.9401 -72.7876
rradius 21.9165
rwrist 11.8884
rhand -16.6743 23.3917
rfingers 7.12502
rthumb 9.54959 -6.37192
lclavicle -4.09993e-014 2.3059e-014
lhumerus -21.7158 -2.47562 81.5502
lradius 30.6409
lwrist 9.27324
lhand -29.6818 22.2774
lfingers 7.12502
lthumb -3.01016 52.2359
rfemur -28.3904 2.70793 21.2257
rtibia 28.617
rfoot -3.10597 -7.97959
rtoes 0.730806
lfemur 12.819 -2.83178 -23.0559
ltibia 34.3576
lfoot -6.75561 -11.9943
ltoes -19.7464
266
root 0.153004 17.6436 22.4382 -2.93818 5.21545 0.259697
lowerback 8.67582 -1.62036 -3.11941
upperback 0.805227 -2.37786 1.83619
thorax -3.82118 -1.11791 3.9442
lowerneck -15.3468 -2.71885 -2.1813
upperneck 21.5463 -3.2612 0.08833
head 9.36256 -1.69108 -0.0136029
rclavicle 2.47487e-014 -4.37326e-015
rhumerus -35.3856 -27.4932 -72.5331
rradius 21.4621
rwrist 12.4777
rhand -16.6915 23.2307
rfingers 7.12502
rthumb 9.53302 -6.5337
lclavicle 2.47487e-014 -4.37326e-015
lhumerus -21.9327 -2.18529 81.5897
lradius 30.2403
lwrist 9.32073
lhand -29.5935 22.6114
lfingers 7.12502
lthumb -2.92487 52.5711
rfemur -27.9354 2.67501 21.8278
rtibia 29.322
rfoot -2.65202 -7.06942
rtoes 3.6933
lfemur 12.257 -2.26635 -22.4257
ltibia 36.2479
lfoot -4.00723 -13.4445
ltoes -19.1768
267
root 0.151054 17.6504 22.6409 -3.0234 4.85239 -0.164346
lowerback 8.63039 -1.57181 -2.54881
upperback 0.75703 -2.25481 1.90028
thorax -3.87639 -1.06352 3.6745
lowerneck -15.0022 -2.70266 -2.21335
upperneck 21.3865 -3.25188 0.144543
head 9.2444 -1.68442 0.0184596
rclavicle 2.3556e-014 -1.03368e-014
rhumerus -35.4612 -28.0283 -72.2391
rradius 21.1196
rwrist 13.0063
rhand -16.9487 23.5795
rfingers 7.12502
rthumb 9.28485 -6.19601
lclavicle 2.3556e-014 -1.03368e-014
lhumerus -22.1332 -1.79001 81.6308
lradius 29.6658
lwrist 9.2713
lhand -29.3601 22.2673
lfingers 7.12502
lthumb -2.69947 52.23
rfemur -27.6427 2.40229 22.5826
rtibia 29.9896
rfoot -2.45872 -6.19614
rtoes 0.541124
lfemur 11.5127 -1.87501 -21.6703
ltibia 38.1656
lfoot -0.786261 -14.8592
ltoes -18.145
268
root 0.143487 17.6627 22.8517 -3.15048 4.41976 -0.422646
lowerback 8.58841 -1.49661 -2.30548
upperback 0.699649 -2.12643 2.00352
thorax -3.92796 -1.00129 3.63031
lowerneck -14.9424 -2.62592 -2.27158
upperneck 21.6062 -3.11883 0.0819056
head 9.30822 -1.63469 0.0222987
rclavicle 1.68594e-014 1.47101e-014
rhumerus -35.579 -28.0399 -72.082
rradius 21.0237
rwrist 13.0561
rhand -16.9297 23.6418
rfingers 7.12502
rthumb 9.30319 -6.13291
lclavicle 1.68594e-014 1.47101e-014
lhumerus -22.5657 -1.38114 81.7528
lradius 29.3764
lwrist 9.22314
lhand -29.2725 22.6217
lfingers 7.12502
lthumb -2.61491 52.5854
rfemur -27.2771 2.38709 23.157
rtibia 30.7193
rfoot -2.54338 -5.50038
rtoes 2.33257
lfemur 10.796 -1.43616 -21.0946
ltibia 40.0663
lfoot 2.26378 -16.031
ltoes -15.9407
